# xmcd CD database file
#
# Track frame offsets:
#	150
#	6389
#	44089
#	77813
#	88478
#	114317
#	136899
#	144346
#	172738
#	184768
#	201852
#	228409
#
# Disc length: 3193 seconds
#
# Revision: 1
# Processed by: cddbd v1.5.1PL0 Copyright (c) Steve Scherf et al.
# Submitted via: CDex 1.51
#
DISCID=a10c770c
DTITLE=Jean-Marc Padovani - Jazz Angkor
DYEAR=1998
DGENRE=Jazz
TTITLE0=Solo flute
TTITLE1=La longue nuit
TTITLE2=Au bord du Toulé Sap
TTITLE3=L'écho de la foret
TTITLE4=L'eau dans la mare
TTITLE5=La danse des Lumas
TTITLE6=Samara
TTITLE7=Moi Pi Bei Boum
TTITLE8=Bay Khon Tchang Day
TTITLE9=L'image du park Khmer
TTITLE10=Hom Rong
TTITLE11=Soam Poong
EXTD=YEAR: 1998
EXTT0=
EXTT1=
EXTT2=
EXTT3=
EXTT4=
EXTT5=
EXTT6=
EXTT7=
EXTT8=
EXTT9=
EXTT10=
EXTT11=
PLAYORDER=
